<mxfile host="app.diagrams.net" modified="2023-02-13T04:10:35.913Z" agent="5.0 (Windows NT 10.0; Win64; x64) AppleWebKit/537.36 (KHTML, like Gecko) Chrome/109.0.0.0 Safari/537.36" etag="brJSnQvImxVpFGM1Pn0U" version="20.8.20" type="github">
  <diagram id="R2lEEEUBdFMjLlhIrx00" name="Page-1">
    <mxGraphModel dx="880" dy="444" grid="1" gridSize="10" guides="1" tooltips="1" connect="1" arrows="1" fold="1" page="1" pageScale="1" pageWidth="850" pageHeight="1100" math="0" shadow="0" extFonts="Permanent Marker^https://fonts.googleapis.com/css?family=Permanent+Marker">
      <root>
        <mxCell id="0" />
        <mxCell id="1" parent="0" />
        <mxCell id="NPDt0GhzQeZepjoz7H9E-1" value="Entity" style="whiteSpace=wrap;html=1;align=center;" vertex="1" parent="1">
          <mxGeometry x="370" y="210" width="100" height="40" as="geometry" />
        </mxCell>
        <mxCell id="NPDt0GhzQeZepjoz7H9E-3" value="nama" style="ellipse;whiteSpace=wrap;html=1;align=center;" vertex="1" parent="1">
          <mxGeometry x="180" y="280" width="100" height="40" as="geometry" />
        </mxCell>
        <mxCell id="NPDt0GhzQeZepjoz7H9E-4" value="no_telfon" style="ellipse;whiteSpace=wrap;html=1;align=center;" vertex="1" parent="1">
          <mxGeometry x="370" y="330" width="100" height="40" as="geometry" />
        </mxCell>
        <mxCell id="NPDt0GhzQeZepjoz7H9E-5" value="prodi" style="ellipse;whiteSpace=wrap;html=1;align=center;" vertex="1" parent="1">
          <mxGeometry x="560" y="280" width="100" height="40" as="geometry" />
        </mxCell>
        <mxCell id="NPDt0GhzQeZepjoz7H9E-6" value="alamat" style="ellipse;whiteSpace=wrap;html=1;align=center;" vertex="1" parent="1">
          <mxGeometry x="550" y="130" width="100" height="40" as="geometry" />
        </mxCell>
        <mxCell id="NPDt0GhzQeZepjoz7H9E-7" value="" style="endArrow=none;html=1;rounded=0;entryX=0.5;entryY=0;entryDx=0;entryDy=0;exitX=0.5;exitY=1;exitDx=0;exitDy=0;" edge="1" parent="1" source="NPDt0GhzQeZepjoz7H9E-1" target="NPDt0GhzQeZepjoz7H9E-4">
          <mxGeometry relative="1" as="geometry">
            <mxPoint x="340" y="230" as="sourcePoint" />
            <mxPoint x="500" y="230" as="targetPoint" />
          </mxGeometry>
        </mxCell>
        <mxCell id="NPDt0GhzQeZepjoz7H9E-9" value="" style="endArrow=none;html=1;rounded=0;entryX=1;entryY=0.5;entryDx=0;entryDy=0;exitX=1;exitY=0.5;exitDx=0;exitDy=0;" edge="1" parent="1" source="NPDt0GhzQeZepjoz7H9E-3">
          <mxGeometry relative="1" as="geometry">
            <mxPoint x="210" y="220" as="sourcePoint" />
            <mxPoint x="280" y="150" as="targetPoint" />
            <Array as="points">
              <mxPoint x="370" y="230" />
            </Array>
          </mxGeometry>
        </mxCell>
        <mxCell id="NPDt0GhzQeZepjoz7H9E-10" value="" style="endArrow=none;html=1;rounded=0;entryX=0;entryY=0.5;entryDx=0;entryDy=0;exitX=0;exitY=0.5;exitDx=0;exitDy=0;" edge="1" parent="1" source="NPDt0GhzQeZepjoz7H9E-5" target="NPDt0GhzQeZepjoz7H9E-6">
          <mxGeometry relative="1" as="geometry">
            <mxPoint x="340" y="230" as="sourcePoint" />
            <mxPoint x="500" y="230" as="targetPoint" />
            <Array as="points">
              <mxPoint x="470" y="230" />
            </Array>
          </mxGeometry>
        </mxCell>
        <mxCell id="NPDt0GhzQeZepjoz7H9E-11" value="nim" style="ellipse;whiteSpace=wrap;html=1;align=center;fontStyle=4;" vertex="1" parent="1">
          <mxGeometry x="180" y="130" width="100" height="40" as="geometry" />
        </mxCell>
      </root>
    </mxGraphModel>
  </diagram>
</mxfile>
